<svg class="sv fish" viewBox="0 0 200 110" role="img" aria-label="Betta giant, maior que um plakat comum"><defs><clipPath id="cgiant1918d7"><path d="M70,50.5 C84,41 118,37 148,40.5 C161,42 169.5,47 172,52.5 C170,58.5 162,62.5 149,64 C118,67 86,64 70,59.5 Z"/></clipPath><clipPath id="fgiant1918d7"><path d="M70,50.5 L59.8,37.5 59.1,37.7 58.4,38.0 57.7,38.2 57.0,38.5 56.3,38.8 55.6,39.2 55.0,39.6 54.3,40.0 53.7,40.4 53.0,40.9 52.4,41.4 51.8,41.9 51.2,42.4 50.7,43.0 50.2,43.6 49.6,44.3 49.2,44.9 48.7,45.6 48.3,46.3 47.9,47.0 47.6,47.8 47.2,48.5 47.0,49.3 46.7,50.1 46.5,50.9 46.3,51.7 46.2,52.5 46.1,53.3 46.0,54.2 46.0,55.0 46.0,55.8 46.1,56.7 46.2,57.5 46.3,58.3 46.5,59.1 46.7,59.9 47.0,60.7 47.2,61.5 47.6,62.2 47.9,63.0 48.3,63.7 48.7,64.4 49.2,65.1 49.6,65.7 50.2,66.4 50.7,67.0 51.2,67.6 51.8,68.1 52.4,68.6 53.0,69.1 53.7,69.6 54.3,70.0 55.0,70.4 55.6,70.8 56.3,71.2 57.0,71.5 57.7,71.8 58.4,72.0 59.1,72.3 59.8,72.5 L70,59.5 Z"/><path d="M96,40 C100,30 114,28 124,38.5 Z"/><path d="M142,63.5 C126,74 96,74 76,61 C96,63 122,64 142,63.5 Z"/></clipPath></defs><g><path d="M70,50.5 L59.8,37.5 59.1,37.7 58.4,38.0 57.7,38.2 57.0,38.5 56.3,38.8 55.6,39.2 55.0,39.6 54.3,40.0 53.7,40.4 53.0,40.9 52.4,41.4 51.8,41.9 51.2,42.4 50.7,43.0 50.2,43.6 49.6,44.3 49.2,44.9 48.7,45.6 48.3,46.3 47.9,47.0 47.6,47.8 47.2,48.5 47.0,49.3 46.7,50.1 46.5,50.9 46.3,51.7 46.2,52.5 46.1,53.3 46.0,54.2 46.0,55.0 46.0,55.8 46.1,56.7 46.2,57.5 46.3,58.3 46.5,59.1 46.7,59.9 47.0,60.7 47.2,61.5 47.6,62.2 47.9,63.0 48.3,63.7 48.7,64.4 49.2,65.1 49.6,65.7 50.2,66.4 50.7,67.0 51.2,67.6 51.8,68.1 52.4,68.6 53.0,69.1 53.7,69.6 54.3,70.0 55.0,70.4 55.6,70.8 56.3,71.2 57.0,71.5 57.7,71.8 58.4,72.0 59.1,72.3 59.8,72.5 L70,59.5 Z" fill="#33449C" fill-opacity="0.5"/><path d="M96,40 C100,30 114,28 124,38.5 Z" fill="#33449C" fill-opacity="0.5"/><path d="M142,63.5 C126,74 96,74 76,61 C96,63 122,64 142,63.5 Z" fill="#33449C" fill-opacity="0.5"/><path d="M146,63 C144,70 140,74 136,76 C140,70 141,66 142,63.5 Z" fill="#33449C" fill-opacity="0.5"/><path d="M72,55 L55.2,37.3 M72,55 L52.8,39.9 M72,55 L50.8,42.9 M72,55 L49.2,46.2 M72,55 L48.2,49.6 M72,55 L47.6,53.2 M72,55 L47.6,56.8 M72,55 L48.2,60.4 M72,55 L49.2,63.8 M72,55 L50.8,67.1 M72,55 L52.8,70.1 M72,55 L55.2,72.7" stroke="#fff" stroke-opacity="0.35" stroke-width=".7" fill="none"/><path d="M70,50.5 C84,41 118,37 148,40.5 C161,42 169.5,47 172,52.5 C170,58.5 162,62.5 149,64 C118,67 86,64 70,59.5 Z" fill="#33449C"/><path d="M146,44 C149,50 149,58 145,63" stroke="#fff" stroke-opacity=".35" stroke-width=".8" fill="none"/><ellipse cx="139" cy="56.5" rx="6" ry="3.2" transform="rotate(-24 139 56.5)" fill="#fff" fill-opacity=".35"/><circle cx="160" cy="49" r="3" fill="#fff"/><circle cx="160.6" cy="49" r="1.6" fill="#0f1a2a"/><path d="M168.5,53.6 L172,52.6" stroke="#0f1a2a" stroke-opacity=".6" stroke-width=".8"/></g><text x="100" y="106" text-anchor="middle" font-size="7">até 12 cm</text></svg>