<svg class="sv fish" viewBox="0 0 200 110" role="img" aria-label="wild-smaragdina"><defs><clipPath id="cwildfed91c"><path d="M70,50.5 C84,41 118,37 148,40.5 C161,42 169.5,47 172,52.5 C170,58.5 162,62.5 149,64 C118,67 86,64 70,59.5 Z"/></clipPath><clipPath id="fwildfed91c"><path d="M70,50.5 L60.4,41.2 59.9,41.4 59.3,41.6 58.8,41.8 58.3,42.1 57.8,42.3 57.2,42.6 56.7,42.9 56.2,43.3 55.7,43.6 55.3,44.0 54.8,44.4 54.4,44.8 53.9,45.3 53.5,45.7 53.1,46.2 52.7,46.7 52.4,47.2 52.0,47.7 51.7,48.3 51.4,48.8 51.2,49.4 50.9,50.0 50.7,50.6 50.5,51.2 50.4,51.8 50.2,52.5 50.1,53.1 50.1,53.7 50.0,54.4 50.0,55.0 50.0,55.6 50.1,56.3 50.1,56.9 50.2,57.5 50.4,58.2 50.5,58.8 50.7,59.4 50.9,60.0 51.2,60.6 51.4,61.2 51.7,61.7 52.0,62.3 52.4,62.8 52.7,63.3 53.1,63.8 53.5,64.3 53.9,64.7 54.4,65.2 54.8,65.6 55.3,66.0 55.7,66.4 56.2,66.7 56.7,67.1 57.2,67.4 57.8,67.7 58.3,67.9 58.8,68.2 59.3,68.4 59.9,68.6 60.4,68.8 L70,59.5 Z"/><path d="M96,40 C100,30 114,28 124,38.5 Z"/><path d="M142,63.5 C126,74 96,74 76,61 C96,63 122,64 142,63.5 Z"/></clipPath></defs><g><path d="M70,50.5 L60.4,41.2 59.9,41.4 59.3,41.6 58.8,41.8 58.3,42.1 57.8,42.3 57.2,42.6 56.7,42.9 56.2,43.3 55.7,43.6 55.3,44.0 54.8,44.4 54.4,44.8 53.9,45.3 53.5,45.7 53.1,46.2 52.7,46.7 52.4,47.2 52.0,47.7 51.7,48.3 51.4,48.8 51.2,49.4 50.9,50.0 50.7,50.6 50.5,51.2 50.4,51.8 50.2,52.5 50.1,53.1 50.1,53.7 50.0,54.4 50.0,55.0 50.0,55.6 50.1,56.3 50.1,56.9 50.2,57.5 50.4,58.2 50.5,58.8 50.7,59.4 50.9,60.0 51.2,60.6 51.4,61.2 51.7,61.7 52.0,62.3 52.4,62.8 52.7,63.3 53.1,63.8 53.5,64.3 53.9,64.7 54.4,65.2 54.8,65.6 55.3,66.0 55.7,66.4 56.2,66.7 56.7,67.1 57.2,67.4 57.8,67.7 58.3,67.9 58.8,68.2 59.3,68.4 59.9,68.6 60.4,68.8 L70,59.5 Z" fill="#2C6F63" fill-opacity="0.55"/><path d="M96,40 C100,30 114,28 124,38.5 Z" fill="#2C6F63" fill-opacity="0.55"/><path d="M142,63.5 C126,74 96,74 76,61 C96,63 122,64 142,63.5 Z" fill="#2C6F63" fill-opacity="0.55"/><path d="M146,63 C144,70 140,74 136,76 C140,70 141,66 142,63.5 Z" fill="#2C6F63" fill-opacity="0.55"/><path d="M72,55 L56.7,41.1 M72,55 L55.0,43.3 M72,55 L53.6,45.6 M72,55 L52.5,48.2 M72,55 L51.7,50.9 M72,55 L51.4,53.6 M72,55 L51.4,56.4 M72,55 L51.7,59.1 M72,55 L52.5,61.8 M72,55 L53.6,64.4 M72,55 L55.0,66.7 M72,55 L56.7,68.9" stroke="#fff" stroke-opacity="0.35" stroke-width=".7" fill="none"/><path d="M70,50.5 C84,41 118,37 148,40.5 C161,42 169.5,47 172,52.5 C170,58.5 162,62.5 149,64 C118,67 86,64 70,59.5 Z" fill="#2C6F63"/><g clip-path="url(#cwildfed91c)"><path d="M76,42 a3,3 0 0 0 6,0" fill="none" stroke="#fff" stroke-opacity=".55" stroke-width=".8"/><path d="M82,42 a3,3 0 0 0 6,0" fill="none" stroke="#fff" stroke-opacity=".55" stroke-width=".8"/><path d="M88,42 a3,3 0 0 0 6,0" fill="none" stroke="#fff" stroke-opacity=".55" stroke-width=".8"/><path d="M94,42 a3,3 0 0 0 6,0" fill="none" stroke="#fff" stroke-opacity=".55" stroke-width=".8"/><path d="M100,42 a3,3 0 0 0 6,0" fill="none" stroke="#fff" stroke-opacity=".55" stroke-width=".8"/><path d="M106,42 a3,3 0 0 0 6,0" fill="none" stroke="#fff" stroke-opacity=".55" stroke-width=".8"/><path d="M112,42 a3,3 0 0 0 6,0" fill="none" stroke="#fff" stroke-opacity=".55" stroke-width=".8"/><path d="M118,42 a3,3 0 0 0 6,0" fill="none" stroke="#fff" stroke-opacity=".55" stroke-width=".8"/><path d="M124,42 a3,3 0 0 0 6,0" fill="none" stroke="#fff" stroke-opacity=".55" stroke-width=".8"/><path d="M130,42 a3,3 0 0 0 6,0" fill="none" stroke="#fff" stroke-opacity=".55" stroke-width=".8"/><path d="M136,42 a3,3 0 0 0 6,0" fill="none" stroke="#fff" stroke-opacity=".55" stroke-width=".8"/><path d="M142,42 a3,3 0 0 0 6,0" fill="none" stroke="#fff" stroke-opacity=".55" stroke-width=".8"/><path d="M79,46 a3,3 0 0 0 6,0" fill="none" stroke="#fff" stroke-opacity=".55" stroke-width=".8"/><path d="M85,46 a3,3 0 0 0 6,0" fill="none" stroke="#fff" stroke-opacity=".55" stroke-width=".8"/><path d="M91,46 a3,3 0 0 0 6,0" fill="none" stroke="#fff" stroke-opacity=".55" stroke-width=".8"/><path d="M97,46 a3,3 0 0 0 6,0" fill="none" stroke="#fff" stroke-opacity=".55" stroke-width=".8"/><path d="M103,46 a3,3 0 0 0 6,0" fill="none" stroke="#fff" stroke-opacity=".55" stroke-width=".8"/><path d="M109,46 a3,3 0 0 0 6,0" fill="none" stroke="#fff" stroke-opacity=".55" stroke-width=".8"/><path d="M115,46 a3,3 0 0 0 6,0" fill="none" stroke="#fff" stroke-opacity=".55" stroke-width=".8"/><path d="M121,46 a3,3 0 0 0 6,0" fill="none" stroke="#fff" stroke-opacity=".55" stroke-width=".8"/><path d="M127,46 a3,3 0 0 0 6,0" fill="none" stroke="#fff" stroke-opacity=".55" stroke-width=".8"/><path d="M133,46 a3,3 0 0 0 6,0" fill="none" stroke="#fff" stroke-opacity=".55" stroke-width=".8"/><path d="M139,46 a3,3 0 0 0 6,0" fill="none" stroke="#fff" stroke-opacity=".55" stroke-width=".8"/><path d="M145,46 a3,3 0 0 0 6,0" fill="none" stroke="#fff" stroke-opacity=".55" stroke-width=".8"/><path d="M76,50 a3,3 0 0 0 6,0" fill="none" stroke="#fff" stroke-opacity=".55" stroke-width=".8"/><path d="M82,50 a3,3 0 0 0 6,0" fill="none" stroke="#fff" stroke-opacity=".55" stroke-width=".8"/><path d="M88,50 a3,3 0 0 0 6,0" fill="none" stroke="#fff" stroke-opacity=".55" stroke-width=".8"/><path d="M94,50 a3,3 0 0 0 6,0" fill="none" stroke="#fff" stroke-opacity=".55" stroke-width=".8"/><path d="M100,50 a3,3 0 0 0 6,0" fill="none" stroke="#fff" stroke-opacity=".55" stroke-width=".8"/><path d="M106,50 a3,3 0 0 0 6,0" fill="none" stroke="#fff" stroke-opacity=".55" stroke-width=".8"/><path d="M112,50 a3,3 0 0 0 6,0" fill="none" stroke="#fff" stroke-opacity=".55" stroke-width=".8"/><path d="M118,50 a3,3 0 0 0 6,0" fill="none" stroke="#fff" stroke-opacity=".55" stroke-width=".8"/><path d="M124,50 a3,3 0 0 0 6,0" fill="none" stroke="#fff" stroke-opacity=".55" stroke-width=".8"/><path d="M130,50 a3,3 0 0 0 6,0" fill="none" stroke="#fff" stroke-opacity=".55" stroke-width=".8"/><path d="M136,50 a3,3 0 0 0 6,0" fill="none" stroke="#fff" stroke-opacity=".55" stroke-width=".8"/><path d="M142,50 a3,3 0 0 0 6,0" fill="none" stroke="#fff" stroke-opacity=".55" stroke-width=".8"/><path d="M79,54 a3,3 0 0 0 6,0" fill="none" stroke="#fff" stroke-opacity=".55" stroke-width=".8"/><path d="M85,54 a3,3 0 0 0 6,0" fill="none" stroke="#fff" stroke-opacity=".55" stroke-width=".8"/><path d="M91,54 a3,3 0 0 0 6,0" fill="none" stroke="#fff" stroke-opacity=".55" stroke-width=".8"/><path d="M97,54 a3,3 0 0 0 6,0" fill="none" stroke="#fff" stroke-opacity=".55" stroke-width=".8"/><path d="M103,54 a3,3 0 0 0 6,0" fill="none" stroke="#fff" stroke-opacity=".55" stroke-width=".8"/><path d="M109,54 a3,3 0 0 0 6,0" fill="none" stroke="#fff" stroke-opacity=".55" stroke-width=".8"/><path d="M115,54 a3,3 0 0 0 6,0" fill="none" stroke="#fff" stroke-opacity=".55" stroke-width=".8"/><path d="M121,54 a3,3 0 0 0 6,0" fill="none" stroke="#fff" stroke-opacity=".55" stroke-width=".8"/><path d="M127,54 a3,3 0 0 0 6,0" fill="none" stroke="#fff" stroke-opacity=".55" stroke-width=".8"/><path d="M133,54 a3,3 0 0 0 6,0" fill="none" stroke="#fff" stroke-opacity=".55" stroke-width=".8"/><path d="M139,54 a3,3 0 0 0 6,0" fill="none" stroke="#fff" stroke-opacity=".55" stroke-width=".8"/><path d="M145,54 a3,3 0 0 0 6,0" fill="none" stroke="#fff" stroke-opacity=".55" stroke-width=".8"/><path d="M76,58 a3,3 0 0 0 6,0" fill="none" stroke="#fff" stroke-opacity=".55" stroke-width=".8"/><path d="M82,58 a3,3 0 0 0 6,0" fill="none" stroke="#fff" stroke-opacity=".55" stroke-width=".8"/><path d="M88,58 a3,3 0 0 0 6,0" fill="none" stroke="#fff" stroke-opacity=".55" stroke-width=".8"/><path d="M94,58 a3,3 0 0 0 6,0" fill="none" stroke="#fff" stroke-opacity=".55" stroke-width=".8"/><path d="M100,58 a3,3 0 0 0 6,0" fill="none" stroke="#fff" stroke-opacity=".55" stroke-width=".8"/><path d="M106,58 a3,3 0 0 0 6,0" fill="none" stroke="#fff" stroke-opacity=".55" stroke-width=".8"/><path d="M112,58 a3,3 0 0 0 6,0" fill="none" stroke="#fff" stroke-opacity=".55" stroke-width=".8"/><path d="M118,58 a3,3 0 0 0 6,0" fill="none" stroke="#fff" stroke-opacity=".55" stroke-width=".8"/><path d="M124,58 a3,3 0 0 0 6,0" fill="none" stroke="#fff" stroke-opacity=".55" stroke-width=".8"/><path d="M130,58 a3,3 0 0 0 6,0" fill="none" stroke="#fff" stroke-opacity=".55" stroke-width=".8"/><path d="M136,58 a3,3 0 0 0 6,0" fill="none" stroke="#fff" stroke-opacity=".55" stroke-width=".8"/><path d="M142,58 a3,3 0 0 0 6,0" fill="none" stroke="#fff" stroke-opacity=".55" stroke-width=".8"/><path d="M79,62 a3,3 0 0 0 6,0" fill="none" stroke="#fff" stroke-opacity=".55" stroke-width=".8"/><path d="M85,62 a3,3 0 0 0 6,0" fill="none" stroke="#fff" stroke-opacity=".55" stroke-width=".8"/><path d="M91,62 a3,3 0 0 0 6,0" fill="none" stroke="#fff" stroke-opacity=".55" stroke-width=".8"/><path d="M97,62 a3,3 0 0 0 6,0" fill="none" stroke="#fff" stroke-opacity=".55" stroke-width=".8"/><path d="M103,62 a3,3 0 0 0 6,0" fill="none" stroke="#fff" stroke-opacity=".55" stroke-width=".8"/><path d="M109,62 a3,3 0 0 0 6,0" fill="none" stroke="#fff" stroke-opacity=".55" stroke-width=".8"/><path d="M115,62 a3,3 0 0 0 6,0" fill="none" stroke="#fff" stroke-opacity=".55" stroke-width=".8"/><path d="M121,62 a3,3 0 0 0 6,0" fill="none" stroke="#fff" stroke-opacity=".55" stroke-width=".8"/><path d="M127,62 a3,3 0 0 0 6,0" fill="none" stroke="#fff" stroke-opacity=".55" stroke-width=".8"/><path d="M133,62 a3,3 0 0 0 6,0" fill="none" stroke="#fff" stroke-opacity=".55" stroke-width=".8"/><path d="M139,62 a3,3 0 0 0 6,0" fill="none" stroke="#fff" stroke-opacity=".55" stroke-width=".8"/><path d="M145,62 a3,3 0 0 0 6,0" fill="none" stroke="#fff" stroke-opacity=".55" stroke-width=".8"/></g><path d="M146,44 C149,50 149,58 145,63" stroke="#fff" stroke-opacity=".35" stroke-width=".8" fill="none"/><ellipse cx="139" cy="56.5" rx="6" ry="3.2" transform="rotate(-24 139 56.5)" fill="#fff" fill-opacity=".35"/><circle cx="160" cy="49" r="3" fill="#fff"/><circle cx="160.6" cy="49" r="1.6" fill="#0f1a2a"/><path d="M168.5,53.6 L172,52.6" stroke="#0f1a2a" stroke-opacity=".6" stroke-width=".8"/></g></svg>